<svg width="97" height="158" viewBox="0 0 97 158" fill="none" xmlns="http://www.w3.org/2000/svg">
<path d="M47.7984 157.715C48.1859 158.107 48.8141 158.105 49.2017 157.71L55.5164 151.271C55.9039 150.876 55.9039 150.238 55.5164 149.846C55.1289 149.454 54.5006 149.457 54.1131 149.852L48.5 155.575L42.8869 149.898C42.4994 149.506 41.8711 149.508 41.4836 149.903C41.0961 150.298 41.0961 150.936 41.4836 151.328L47.7984 157.715ZM47.5077 55.121L47.5077 157.004L49.4923 156.996L49.4922 55.1129L47.5077 55.121Z" fill="black"/>
<path d="M76.5 27.5C76.5 42.4032 64.1964 54.5 49 54.5C33.8036 54.5 21.5 42.4032 21.5 27.5C21.5 12.5968 33.8036 0.5 49 0.5C64.1964 0.5 76.5 12.5968 76.5 27.5Z" fill="white"/>
<path d="M76.5 27.5C76.5 42.4032 64.1964 54.5 49 54.5C33.8036 54.5 21.5 42.4032 21.5 27.5C21.5 12.5968 33.8036 0.5 49 0.5C64.1964 0.5 76.5 12.5968 76.5 27.5Z" fill="white"/>
<path d="M76.5 27.5C76.5 42.4032 64.1964 54.5 49 54.5C33.8036 54.5 21.5 42.4032 21.5 27.5C21.5 12.5968 33.8036 0.5 49 0.5C64.1964 0.5 76.5 12.5968 76.5 27.5Z" stroke="black"/>
<circle cx="49.5" cy="28.5" r="8" fill="white"/>
<circle cx="49.5" cy="28.5" r="8" fill="#050000"/>
<circle cx="49.5" cy="28.5" r="8" stroke="black"/>
</svg>
