<svg width="194" height="314" viewBox="0 0 194 314" fill="none" xmlns="http://www.w3.org/2000/svg" xmlns:xlink="http://www.w3.org/1999/xlink">
<path d="M160.676,131.754C160.534,130.658 159.531,129.886 158.435,130.028L140.585,132.346C139.49,132.488 138.717,133.491 138.859,134.587C139.001,135.682 140.005,136.455 141.1,136.312L156.967,134.252L159.027,150.119C159.17,151.214 160.173,151.987 161.268,151.845C162.364,151.702 163.136,150.699 162.994,149.604L160.676,131.754ZM36.892,293.443L160.277,133.231L157.108,130.791L33.723,291.003L36.892,293.443Z" transform="rotate(283.655 97 212.117)" fill="#000000"/>
<path d="M154,55C154,85.376 128.928,110 98,110C67.072,110 42,85.376 42,55C42,24.624 67.072,0 98,0C128.928,0 154,24.624 154,55Z" fill="#FFFFFF"/>
<path d="M154,55C154,85.376 128.928,110 98,110C67.072,110 42,85.376 42,55C42,24.624 67.072,0 98,0C128.928,0 154,24.624 154,55Z" fill="#FFFFFF"/>
<path d="M154,55C154,85.376 128.928,110 98,110C67.072,110 42,85.376 42,55C42,24.624 67.072,0 98,0C128.928,0 154,24.624 154,55Z" stroke="#000000" stroke-width="1" stroke-miterlimit="3.999327"/>
<circle cx="-6440" cy="-4890" r="0" fill="#FFFFFF"/>
<circle cx="-6440" cy="-4890" r="0" fill="#050000"/>
<circle cx="-6440" cy="-4890" r="0" stroke="#000000" stroke-width="1" stroke-miterlimit="3.999327"/>
</svg>
