<svg width="194" height="314" viewBox="0 0 194 314" fill="none" xmlns="http://www.w3.org/2000/svg" xmlns:xlink="http://www.w3.org/1999/xlink">
<path d="M160.676,21.52C160.534,20.424 159.531,19.652 158.435,19.794L140.585,22.112C139.49,22.254 138.717,23.257 138.859,24.353C139.002,25.448 140.005,26.221 141.1,26.078L156.967,24.018L159.027,39.885C159.17,40.98 160.173,41.753 161.268,41.611C162.364,41.468 163.136,40.465 162.994,39.37L160.676,21.52ZM36.892,183.209L160.277,22.998L157.108,20.557L33.723,180.769L36.892,183.209Z" transform="rotate(-76.345 97 101.883)" fill="#000000"/>
<path d="M152,259C152,289.376 126.928,314 96,314C65.072,314 40,289.376 40,259C40,228.624 65.072,204 96,204C126.928,204 152,228.624 152,259Z" transform="rotate(-360 96 259)" fill="#FFFFFF"/>
<path d="M152,259C152,289.376 126.928,314 96,314C65.072,314 40,289.376 40,259C40,228.624 65.072,204 96,204C126.928,204 152,228.624 152,259Z" transform="rotate(-360 96 259)" fill="#FFFFFF"/>
<path d="M152,259C152,289.376 126.928,314 96,314C65.072,314 40,289.376 40,259C40,228.624 65.072,204 96,204C126.928,204 152,228.624 152,259Z" transform="rotate(-360 96 259)" stroke="#000000" stroke-width="1" stroke-miterlimit="3.999327"/>
<circle cx="-4970" cy="-5514" r="0" transform="rotate(-360 -4970 -5514)" fill="#FFFFFF"/>
<circle cx="-4970" cy="-5514" r="0" transform="rotate(-360 -4970 -5514)" fill="#050000"/>
<circle cx="-4970" cy="-5514" r="0" transform="rotate(-360 -4970 -5514)" stroke="#000000" stroke-width="1" stroke-miterlimit="3.999327"/>
</svg>
